# xmcd
#
# Track frame offsets:
#  150
#  14060
#  36651
#  58122
#  77328
#  94503
#  110155
#  136539
#  156520
#  176772
#  199771
#  222215
#  242109
#  259984
#
# Disc length: 3863 seconds
#
# Revision: 0
# Processed by: cddbd v1.5.1PL2 Copyright (c) Steve Scherf et al.
# Submitted via: Collectorz.com_Music_Collector 6.10
#
DISCID=ca0f150e
DTITLE=Various Artist - Cold Hands Seduction Vol.60
DYEAR=2006
DGENRE=Electronic Gothic
TTITLE0=Zeraphine - Toxic Skies
TTITLE1=She Wants Revenge - Sister
TTITLE2=Philiae - This Is The Dawn Of A New Error
TTITLE3=Limbogott - Nerve
TTITLE4=Eat Your Make Up - The Sixteenth
TTITLE5=Bela B. - Deutsche Kauft Nicht Bei Nazis
TTITLE6=Bella Donna - Mathew and Ise (Traditional)
TTITLE7=Minerve - Sick Of You (Extra Edition)
TTITLE8=Caretaker - Lichtgeschwindigkeit (2006 Rmx)
TTITLE9=Polarlicht 4.1 - Polarluft Reworked(Vs Wynardtage)
TTITLE10=Digital Factor - Phase 2
TTITLE11=Dive Vs Diskonnekted - Do You Believe It?
TTITLE12=Zombie Girl - Creepy Crawler
TTITLE13=Transistor - The Eagle
EXTD=
EXTT0=
EXTT1=
EXTT2=
EXTT3=
EXTT4=
EXTT5=
EXTT6=
EXTT7=
EXTT8=
EXTT9=
EXTT10=
EXTT11=
EXTT12=
EXTT13=
PLAYORDER=
